<?xml version="1.0" standalone="no"?>
<!DOCTYPE svg PUBLIC "-//W3C//DTD SVG 20010904//EN"
 "http://www.w3.org/TR/2001/REC-SVG-20010904/DTD/svg10.dtd">
<svg version="1.0" xmlns="http://www.w3.org/2000/svg"
 width="158.000000pt" height="158.000000pt" viewBox="0 0 158.000000 158.000000"
 preserveAspectRatio="xMidYMid meet">

<g transform="translate(0.000000,158.000000) scale(0.100000,-0.100000)"
fill="#000000" stroke="none">
<path d="M535 1396 c-194 -131 -258 -371 -156 -591 28 -60 103 -155 122 -155
4 0 19 -10 32 -22 27 -25 120 -63 181 -74 l38 -7 -5 -45 c-3 -27 -1 -39 4 -31
6 9 9 10 9 2 0 -6 -5 -15 -10 -18 -8 -5 -8 -11 0 -20 8 -10 8 -15 0 -20 -6 -4
-9 -14 -6 -23 3 -10 8 -30 10 -47 3 -16 10 -52 16 -80 6 -27 11 -58 11 -67 0
-27 19 -32 20 -6 1 26 1 26 24 139 15 75 14 197 -3 223 -3 5 0 6 7 2 33 -21
190 41 260 101 51 43 103 112 95 124 -3 5 -1 9 4 9 14 0 43 77 49 130 14 115
14 142 4 192 -15 72 -57 161 -72 152 -8 -5 -9 -3 -4 5 9 16 -53 81 -123 128
-61 41 -80 39 -26 -2 116 -89 174 -194 174 -318 0 -83 -23 -168 -60 -222 -16
-23 -26 -46 -22 -50 4 -5 2 -5 -4 -2 -14 8 -77 -56 -67 -68 5 -4 2 -5 -5 -1
-6 4 -24 -1 -40 -11 -32 -22 -95 -49 -135 -58 l-28 -6 3 93 3 93 35 12 c31 10
22 12 -80 12 -81 -1 -106 -3 -86 -9 16 -5 33 -15 37 -22 9 -14 12 -178 4 -178
-23 0 -136 47 -169 69 -23 16 -44 29 -48 30 -5 0 -8 4 -9 9 -1 4 -17 24 -36
46 -75 83 -110 212 -87 325 21 102 73 182 169 258 53 43 33 42 -30 -1z m578
-651 c-3 -9 -8 -14 -10 -11 -3 3 -2 9 2 15 9 16 15 13 8 -4z"/>
</g>
</svg>
